<?xml version="1.0" standalone="no"?>
<!DOCTYPE svg PUBLIC "-//W3C//DTD SVG 20010904//EN"
 "http://www.w3.org/TR/2001/REC-SVG-20010904/DTD/svg10.dtd">
<svg version="1.0" xmlns="http://www.w3.org/2000/svg"
 width="300.000000pt" height="300.000000pt" viewBox="0 0 300.000000 300.000000"
 preserveAspectRatio="xMidYMid meet">
<metadata>
Created by potrace 1.14, written by Peter Selinger 2001-2017
</metadata>
<g transform="translate(0.000000,300.000000) scale(0.100000,-0.100000)"
fill="#000000" stroke="none">
<path d="M1317 2909 c-3 -10 -1 -22 4 -25 17 -10 10 -37 -9 -32 -10 3 -23 0
-29 -6 -6 -6 -20 -19 -33 -29 -17 -14 -19 -21 -10 -32 8 -10 8 -24 2 -49 -6
-19 -7 -37 -4 -40 7 -8 -12 -8 -32 0 -18 7 -21 40 -7 77 24 62 39 127 31 132
-5 3 -19 -22 -31 -56 -23 -62 -23 -62 -38 -39 -39 58 -46 63 -70 51 -15 -9
-20 -18 -16 -32 6 -18 2 -19 -61 -16 -40 1 -69 -2 -71 -8 -8 -26 -80 -111 -90
-108 -13 5 -63 -35 -63 -49 0 -5 6 -8 13 -7 6 1 23 1 36 0 35 -2 15 -16 -21
-16 -23 0 -32 -5 -34 -19 -1 -10 -8 -22 -14 -26 -14 -9 -15 -52 -2 -110 5 -25
8 -99 7 -165 -2 -66 0 -147 5 -180 4 -33 11 -84 14 -113 8 -70 16 -119 26
-167 5 -22 10 -94 11 -160 2 -134 14 -244 29 -259 6 -6 10 -36 10 -67 0 -43 4
-58 16 -63 35 -14 62 -3 117 47 44 40 58 60 61 85 3 26 1 30 -10 21 -19 -15
-18 1 1 28 14 20 14 23 -5 33 -11 6 -18 15 -15 19 2 5 8 45 11 90 6 70 4 84
-11 101 -12 13 -16 28 -12 47 3 15 10 46 14 68 6 24 5 51 -1 68 -8 21 -6 35 9
63 26 49 27 61 0 68 -15 4 -28 20 -38 44 -16 41 -17 58 -3 81 7 11 10 11 17 0
7 -11 9 -10 10 4 3 32 4 36 17 49 16 16 15 23 -4 63 -11 23 -21 32 -31 28 -13
-5 -13 -2 1 24 8 17 23 33 32 37 15 6 15 8 0 31 -20 30 -21 59 -2 74 16 14 32
-2 20 -20 -4 -7 -1 -10 7 -7 21 7 39 48 39 89 0 40 8 46 57 44 24 0 34 5 42
21 7 16 16 21 31 17 11 -3 23 -9 26 -14 10 -17 26 -9 21 11 -4 17 -1 20 21 18
20 -2 30 4 41 27 l15 30 10 -37 c11 -44 27 -51 24 -10 -1 15 2 38 7 51 l8 25
14 -27 c8 -15 12 -31 9 -35 -3 -4 -1 -14 4 -21 6 -11 15 -8 42 12 l34 27 16
-33 c14 -29 19 -32 59 -31 24 0 49 -3 56 -8 7 -6 15 -3 21 9 8 13 22 17 52 17
34 -1 49 -9 80 -39 40 -39 42 -39 66 15 l12 25 11 -27 c12 -31 14 -32 43 -17
26 14 31 8 19 -24 -6 -15 -6 -29 -1 -32 4 -3 10 0 12 7 6 18 56 1 63 -22 8
-24 -2 -60 -17 -60 -5 0 -12 9 -15 20 -3 11 -8 20 -12 20 -3 0 -28 -25 -54
-55 -26 -30 -72 -71 -102 -91 -30 -20 -55 -42 -55 -50 0 -7 -16 -16 -36 -20
-25 -4 -38 -14 -44 -30 -8 -19 -17 -24 -45 -24 -28 0 -43 -8 -74 -41 -35 -35
-43 -39 -61 -29 -28 15 -79 3 -107 -24 -11 -11 -49 -32 -84 -46 -43 -17 -76
-39 -103 -68 -52 -56 -60 -77 -43 -111 7 -15 12 -43 9 -64 -4 -32 1 -41 38
-79 23 -24 59 -63 79 -87 74 -92 115 -122 181 -136 21 -4 61 -30 100 -63 36
-31 73 -62 82 -70 10 -8 31 -15 47 -14 21 0 31 -6 40 -24 11 -25 26 -31 36
-14 3 6 21 10 40 10 26 0 43 -10 77 -43 41 -41 106 -87 139 -99 9 -4 20 2 27
12 7 12 18 16 31 13 12 -3 18 -9 15 -14 -3 -5 -10 -7 -15 -4 -5 4 -9 -3 -9
-14 0 -13 -7 -21 -17 -21 -14 -1 -12 -4 6 -14 14 -8 31 -12 38 -9 7 3 13 1 13
-4 0 -4 9 -14 21 -21 17 -11 24 -11 37 0 15 11 15 11 4 -3 -18 -24 9 -32 59
-16 39 12 39 12 39 62 0 28 -6 57 -12 64 -11 10 -7 12 17 9 28 -3 30 -1 35 39
4 23 14 51 24 62 13 15 16 29 11 62 -7 47 -12 59 -24 59 -5 0 -6 -11 -4 -24 5
-26 -12 -66 -28 -66 -6 0 -35 25 -64 56 l-54 55 47 -6 46 -6 -19 21 c-13 14
-28 20 -43 17 -17 -3 -22 -1 -18 9 3 8 1 14 -3 14 -5 0 -12 -7 -15 -16 -4 -10
-12 -14 -24 -9 -9 3 -21 7 -27 8 -5 1 -16 10 -23 19 -7 9 -29 18 -50 20 -28 2
-38 8 -40 23 -7 42 -11 48 -27 35 -12 -10 -16 -9 -21 4 -4 10 -18 16 -35 16
-26 0 -29 -3 -29 -32 l0 -33 -19 24 c-15 20 -21 22 -39 12 -22 -12 -26 -9 -23
20 1 9 -17 35 -40 57 -33 33 -40 47 -37 67 6 31 -12 29 -27 -3 -14 -32 -28
-27 -20 9 9 39 -12 64 -56 67 -19 2 -38 11 -47 23 -8 12 -23 19 -37 17 -28 -4
-104 48 -110 76 -3 12 -4 40 -2 62 2 35 5 40 18 33 9 -4 19 -6 22 -2 12 11 37
-6 31 -22 -3 -8 -10 -12 -15 -9 -5 3 -9 -6 -9 -20 0 -19 5 -26 20 -26 16 0 20
-7 20 -30 0 -27 22 -51 35 -38 9 8 12 79 4 84 -5 3 -9 18 -9 34 l0 29 34 -19
c50 -30 108 -13 78 23 -6 7 -12 28 -14 47 -3 34 -2 35 31 36 31 1 32 0 16 -12
-15 -11 -16 -18 -8 -36 l10 -23 7 23 c4 13 15 22 27 22 25 0 24 15 -3 34 -22
15 -20 16 30 16 39 0 52 4 52 14 0 8 5 18 11 22 7 4 10 -11 7 -50 -2 -32 -1
-59 3 -62 4 -2 15 21 24 51 16 55 28 63 63 41 17 -10 53 72 45 102 -6 26 12
52 38 52 10 0 21 9 24 20 5 15 12 19 26 15 10 -3 28 -8 39 -11 26 -7 26 11 0
29 -19 13 -19 14 5 35 32 28 32 49 0 74 -14 11 -25 27 -25 36 0 13 4 11 21 -6
24 -26 39 -21 39 14 0 16 -8 28 -25 36 -27 12 -31 22 -40 83 -10 62 -25 114
-36 120 -5 4 -19 -5 -30 -20 -27 -33 -45 -27 -41 12 3 27 0 31 -27 36 -19 4
-34 16 -43 33 -18 37 -34 40 -33 7 0 -24 -4 -28 -30 -28 -25 0 -30 4 -28 22 2
19 -1 21 -20 14 -16 -7 -21 -16 -19 -35 2 -18 -2 -26 -13 -26 -8 0 -15 -4 -15
-8 0 -10 38 -46 64 -59 19 -10 18 -11 -2 -17 -12 -4 -22 -12 -22 -17 0 -6 -15
6 -34 25 -44 47 -66 47 -66 1 0 -26 -4 -33 -14 -29 -8 3 -23 1 -34 -5 -15 -8
-21 -7 -26 4 -3 8 2 19 11 23 9 5 14 16 11 23 -3 8 7 30 23 49 32 37 32 47 0
30 -17 -9 -21 -8 -21 5 0 8 6 15 13 15 7 1 5 6 -5 14 -10 7 -14 17 -9 22 5 5
-6 21 -25 37 l-33 28 -15 -34 c-7 -19 -19 -38 -25 -42 -15 -8 -90 26 -91 42 0
18 -21 27 -30 13 -6 -10 -15 -11 -37 -3 -57 22 -61 22 -66 2z m90 -61 c-3 -8
-6 -5 -6 6 -1 11 2 17 5 13 3 -3 4 -12 1 -19z m157 -33 c-4 -8 -10 -12 -15 -9
-11 6 -2 24 11 24 5 0 7 -7 4 -15z m-137 -62 c-3 -10 -5 -4 -5 12 0 17 2 24 5
18 2 -7 2 -21 0 -30z m123 -4 c0 -16 -4 -29 -10 -29 -5 0 -10 3 -11 8 0 4 -2
16 -4 26 -2 11 -2 24 1 28 10 16 24 -3 24 -33z m-463 -1 c-3 -7 -5 -2 -5 12 0
14 2 19 5 13 2 -7 2 -19 0 -25z m223 23 c0 -6 -4 -13 -10 -16 -5 -3 -10 1 -10
9 0 9 5 16 10 16 6 0 10 -4 10 -9z m644 -7 c9 -25 7 -64 -4 -64 -5 0 -10 7
-10 15 0 8 -9 24 -19 34 -14 14 -16 21 -8 25 23 9 35 6 41 -10z m98 -89 c-4
-33 -22 -41 -22 -9 0 8 -7 14 -15 14 -18 0 -20 16 -2 23 34 14 43 7 39 -28z
m-312 15 c0 -5 -5 -10 -11 -10 -5 0 -7 5 -4 10 3 6 8 10 11 10 2 0 4 -4 4 -10z
m141 -33 c-8 -8 -11 -7 -11 4 0 20 13 34 18 19 3 -7 -1 -17 -7 -23z m-745 -44
c-38 -35 -68 -40 -74 -12 -2 11 13 23 45 37 63 27 75 17 29 -25z m64 32 c0 -8
-4 -15 -8 -15 -5 0 -9 7 -9 15 0 8 4 15 9 15 4 0 8 -7 8 -15z m824 -84 c-2 -2
-10 2 -19 9 -16 13 -20 51 -7 64 7 8 33 -65 26 -73z m-89 59 c3 -5 -1 -10 -10
-10 -9 0 -13 5 -10 10 3 6 8 10 10 10 2 0 7 -4 10 -10z m-1065 -81 c0 -5 -4
-9 -10 -9 -5 0 -10 7 -10 16 0 8 5 12 10 9 6 -3 10 -10 10 -16z m115 -9 c3 -5
-1 -10 -10 -10 -9 0 -13 5 -10 10 3 6 8 10 10 10 2 0 7 -4 10 -10z m1113 -59
c3 -8 -1 -12 -9 -9 -7 2 -15 10 -17 17 -3 8 1 12 9 9 7 -2 15 -10 17 -17z
m-38 -51 c0 -5 -2 -10 -4 -10 -3 0 -8 5 -11 10 -3 6 -1 10 4 10 6 0 11 -4 11
-10z m-40 -39 c0 -10 -7 -24 -15 -31 -12 -10 -16 -9 -21 4 -6 16 11 46 27 46
5 0 9 -8 9 -19z m-175 -141 c0 -7 -8 -14 -17 -16 -18 -2 -24 16 -11 30 10 10
28 1 28 -14z m75 -18 c0 -15 -2 -15 -10 -2 -13 20 -13 33 0 25 6 -3 10 -14 10
-23z m-910 -3 c0 -6 -4 -7 -10 -4 -5 3 -10 11 -10 16 0 6 5 7 10 4 6 -3 10
-11 10 -16z m598 -81 c7 -7 12 -20 12 -30 0 -17 -2 -17 -24 -3 -23 15 -25 15
-36 -5 -13 -24 -32 -18 -23 8 15 41 46 55 71 30z m-650 -184 c-10 -10 -28 6
-28 24 0 15 1 15 17 -1 9 -9 14 -19 11 -23z m669 -176 c-3 -8 -6 -5 -6 6 -1
11 2 17 5 13 3 -3 4 -12 1 -19z m-702 -428 c10 -16 -16 -43 -28 -31 -11 11 -2
41 12 41 5 0 13 -5 16 -10z m1395 -50 c0 -5 -2 -10 -4 -10 -3 0 -8 5 -11 10
-3 6 -1 10 4 10 6 0 11 -4 11 -10z m-235 -30 c3 -5 1 -10 -4 -10 -6 0 -11 5
-11 10 0 6 2 10 4 10 3 0 8 -4 11 -10z"/>
<path d="M1180 944 c0 -15 -38 -25 -43 -11 -6 19 -37 -2 -37 -26 0 -24 -29
-72 -30 -49 0 15 -34 16 -61 2 -15 -9 -17 -15 -9 -30 9 -17 7 -20 -15 -26 -14
-3 -25 -11 -25 -16 0 -6 -6 -5 -15 2 -9 8 -15 9 -15 2 0 -6 6 -14 13 -19 8 -5
2 -9 -18 -13 -21 -4 -31 -12 -33 -28 -2 -12 1 -22 7 -22 6 0 11 -5 11 -11 0
-5 -4 -7 -10 -4 -5 3 -10 1 -10 -5 0 -7 -8 -9 -22 -5 -19 6 -21 5 -10 -6 18
-19 15 -28 -8 -26 -12 1 -18 7 -16 14 10 25 -14 24 -26 -1 -22 -49 -56 -25
-53 37 1 21 -2 40 -7 43 -4 3 -8 22 -9 42 -1 50 -13 88 -27 84 -7 -1 -12 3
-12 9 0 5 -4 8 -9 4 -6 -3 -14 2 -19 11 -18 32 -26 -8 -24 -110 2 -55 6 -104
9 -109 14 -22 13 -84 -1 -111 -11 -21 -12 -35 -4 -55 11 -30 15 -157 5 -168
-4 -3 -14 2 -22 13 -11 14 -15 15 -14 4 1 -8 -1 -23 -5 -32 -5 -11 -2 -23 8
-33 14 -15 14 -18 1 -31 -17 -17 -21 -39 -5 -29 10 6 13 -3 12 -45 -1 -14 1
-42 4 -62 5 -36 8 -38 40 -38 21 0 33 4 29 10 -3 6 -2 10 3 10 14 0 31 46 25
68 -3 12 2 35 10 51 11 22 12 31 4 31 -8 0 -8 3 -2 8 12 8 12 35 1 70 -9 27 1
62 18 62 7 0 25 -11 39 -24 15 -14 29 -21 32 -16 3 4 14 6 24 3 13 -3 20 1 23
14 2 12 6 14 11 6 4 -7 -1 -20 -12 -30 -20 -18 -19 -19 17 -59 47 -51 132
-115 143 -108 5 3 6 10 3 16 -5 7 -2 8 5 4 7 -5 10 -10 7 -13 -9 -9 14 -44 27
-41 7 1 22 -3 35 -10 24 -14 42 -9 42 13 0 7 13 18 29 23 56 20 44 74 -22 97
-35 12 -36 12 -26 -7 9 -18 8 -18 -10 -8 -18 9 -26 28 -22 53 0 4 -5 7 -13 7
-8 0 -23 13 -32 29 -10 16 -25 32 -33 35 -9 3 -21 8 -27 11 -7 4 -11 -1 -10
-11 0 -9 -5 -19 -13 -22 -8 -3 -11 0 -7 7 4 6 2 11 -3 11 -6 0 -11 15 -11 33
0 28 -7 37 -45 61 -25 16 -45 31 -45 34 0 3 17 24 38 47 20 24 45 54 55 68 9
14 29 32 44 39 15 7 32 22 38 33 14 28 87 115 97 115 9 0 59 50 50 50 -4 0 2
7 12 15 11 8 16 18 13 22 -4 3 3 17 15 30 12 13 20 23 17 24 -26 7 -69 2 -69
-7z m0 -49 c0 -8 -4 -15 -10 -15 -5 0 -10 7 -10 15 0 8 5 15 10 15 6 0 10 -7
10 -15z"/>
<path d="M2625 915 c-14 -13 -25 -30 -25 -37 0 -8 -5 -6 -11 5 -13 23 -29 22
-29 -3 0 -11 -7 -20 -15 -20 -9 0 -20 -10 -24 -22 -8 -19 -10 -20 -16 -7 -4
11 -14 15 -26 12 -16 -5 -19 0 -19 31 0 41 -19 48 -58 20 -18 -12 -26 -13 -37
-4 -12 10 -15 9 -16 -4 -1 -9 -3 -20 -4 -26 -1 -5 -3 -16 -4 -22 -1 -7 -7 -2
-14 11 -17 34 -37 38 -37 8 0 -20 -4 -24 -20 -20 -19 5 -20 2 -15 -27 3 -18
10 -41 16 -51 11 -21 56 -46 79 -44 8 1 21 -3 28 -8 8 -7 12 -5 12 7 0 9 7 16
15 16 8 0 15 6 15 13 1 6 7 1 14 -13 8 -14 12 -28 10 -32 -3 -5 0 -8 5 -8 6 0
11 6 11 14 0 24 30 40 81 43 35 1 49 -2 49 -11 0 -12 -10 -25 -97 -120 -19
-21 -48 -59 -64 -84 -25 -39 -27 -47 -14 -55 18 -10 20 -46 3 -51 -7 -2 -34
-9 -59 -16 -40 -10 -53 -21 -105 -88 -60 -78 -66 -97 -51 -172 2 -14 5 -28 6
-32 2 -12 31 -9 31 2 0 6 6 10 13 10 7 0 28 9 48 19 36 19 36 19 55 -2 18 -22
19 -22 22 -2 2 11 9 26 14 33 14 17 65 15 72 -3 3 -8 10 -15 16 -15 6 0 9 4 6
9 -13 20 24 19 38 -1 l15 -21 20 24 c18 20 22 22 30 9 6 -8 15 -15 20 -15 6 0
16 -8 24 -19 11 -15 17 -17 35 -7 12 6 22 19 22 29 0 12 6 9 19 -12 17 -25 20
-26 29 -11 9 17 11 17 28 -3 24 -28 34 -28 27 1 -5 18 -3 20 8 9 20 -19 29
-15 29 14 0 16 4 23 11 18 6 -3 9 -20 7 -36 -7 -42 10 -45 18 -3 7 40 45 75
72 68 14 -3 21 4 29 31 7 21 7 38 2 42 -5 3 -9 18 -9 33 0 40 -27 101 -45 101
-8 0 -15 5 -15 11 0 5 -4 8 -9 5 -4 -3 -14 -33 -21 -66 -7 -34 -21 -71 -30
-83 -16 -20 -20 -20 -113 -9 -53 7 -134 12 -181 12 -47 0 -88 5 -91 10 -3 6 3
22 14 36 15 19 21 41 21 79 0 40 4 54 17 59 25 10 47 -34 24 -49 -5 -3 -12 5
-14 17 -4 20 -4 20 -6 -4 -2 -37 15 -44 35 -13 9 14 23 25 31 25 14 0 13 11
-4 58 -3 7 3 12 16 12 12 0 21 6 21 16 0 8 5 12 10 9 6 -3 10 4 10 17 1 13 11
36 24 51 21 26 24 27 30 10 7 -16 9 -16 21 7 8 14 14 35 15 48 0 24 10 28 28
10 9 -9 12 -5 12 20 0 30 7 36 35 33 6 0 12 12 13 29 2 22 -1 28 -12 24 -11
-4 -13 0 -9 15 9 35 20 33 27 -4 4 -19 12 -37 18 -41 11 -7 10 3 -6 81 -11 50
-14 54 -45 53 -25 -1 -31 -6 -36 -30 -7 -31 -25 -29 -25 3 0 10 -4 19 -10 19
-5 0 -10 -6 -10 -12 0 -10 -3 -9 -9 1 -5 7 -8 21 -6 30 2 15 -11 31 -28 31 -4
0 -19 -11 -32 -25z m-195 -60 c0 -8 -2 -15 -4 -15 -2 0 -6 7 -10 15 -3 8 -1
15 4 15 6 0 10 -7 10 -15z m336 -52 c-11 -11 -19 6 -11 24 8 17 8 17 12 0 3
-10 2 -21 -1 -24z m-136 -78 c0 -8 -2 -15 -4 -15 -2 0 -6 7 -10 15 -3 8 -1 15
4 15 6 0 10 -7 10 -15z m-270 -430 c-16 -19 -40 -20 -40 0 0 8 7 15 15 15 8 0
15 5 15 12 0 9 3 9 12 0 8 -8 8 -15 -2 -27z m240 -70 c0 -8 -4 -15 -10 -15 -5
0 -7 7 -4 15 4 8 8 15 10 15 2 0 4 -7 4 -15z m27 -27 c-3 -7 -5 -2 -5 12 0 14
2 19 5 13 2 -7 2 -19 0 -25z"/>
<path d="M327 863 c5 -13 3 -15 -13 -8 -10 4 -44 8 -74 7 -78 -2 -81 -3 -118
-14 -28 -9 -33 -14 -29 -34 5 -26 -3 -30 -21 -12 -13 13 -16 0 -4 -18 23 -34
158 -70 190 -50 8 5 12 1 12 -11 0 -26 -16 -47 -29 -38 -8 5 -12 -5 -11 -32 0
-21 -1 -62 -3 -90 -2 -29 -1 -53 3 -53 4 0 7 -15 7 -32 1 -64 11 -183 18 -199
5 -13 -1 -18 -27 -23 -57 -10 -158 -14 -158 -5 0 5 -16 -7 -35 -27 -36 -36
-43 -61 -24 -95 8 -15 19 -19 50 -17 21 1 39 6 39 10 0 5 9 3 19 -4 15 -9 23
-9 34 0 8 7 27 10 46 6 36 -7 65 11 56 35 -3 11 0 10 12 -4 18 -21 23 -22 108
-30 32 -3 52 0 58 8 7 9 10 9 14 0 7 -18 24 -16 17 1 -3 8 -15 16 -26 19 -11
3 -17 10 -14 15 3 6 14 8 25 5 12 -3 24 3 35 18 16 23 16 23 16 2 0 -35 19
-37 33 -4 7 17 16 28 20 24 15 -14 6 8 -10 27 -12 14 -19 16 -24 8 -5 -8 -12
-9 -21 -2 -7 6 -28 9 -47 7 -19 -2 -40 2 -48 9 -11 9 -16 9 -23 -2 -6 -10 -14
-5 -29 21 -18 28 -19 35 -6 37 16 4 22 72 7 72 -9 0 -8 134 1 200 2 19 -1 41
-7 49 -8 11 -8 13 2 7 7 -4 3 13 -10 38 -25 51 -18 69 26 69 15 0 29 3 32 8 2
4 16 4 30 -1 38 -15 44 -12 44 17 0 14 6 34 14 42 15 17 5 61 -13 61 -17 0
-40 -30 -35 -45 4 -10 0 -15 -10 -15 -12 0 -15 6 -10 24 6 27 -21 40 -52 23
-13 -7 -19 -7 -22 1 -2 7 -8 12 -13 12 -4 0 -5 -8 -2 -17z m23 -513 c0 -5 -2
-10 -4 -10 -3 0 -8 5 -11 10 -3 6 -1 10 4 10 6 0 11 -4 11 -10z m107 -162 c-3
-8 -6 -5 -6 6 -1 11 2 17 5 13 3 -3 4 -12 1 -19z m-132 -38 c3 -6 -1 -7 -9 -4
-18 7 -21 14 -7 14 6 0 13 -4 16 -10z"/>
<path d="M1530 840 c-23 -18 -23 -20 -5 -20 19 -1 19 -1 3 -14 -10 -7 -18 -18
-18 -25 0 -6 -4 -11 -8 -11 -17 0 -31 -50 -28 -97 2 -26 2 -40 -1 -30 -2 9 -8
17 -13 17 -16 0 -29 -89 -33 -236 -2 -59 -8 -86 -19 -98 -11 -10 -15 -29 -13
-56 2 -26 -1 -40 -9 -40 -10 0 -46 -97 -46 -124 0 -4 17 -25 37 -47 40 -42 53
-38 53 14 0 15 9 49 21 74 11 25 18 52 15 60 -4 9 -1 22 6 31 10 12 10 16 1
19 -17 6 -16 23 2 37 15 12 28 69 27 124 0 17 4 35 9 38 5 3 6 16 3 29 -3 13
0 26 7 30 9 6 11 -2 6 -33 -3 -24 -1 -45 5 -48 6 -4 5 -10 -3 -15 -11 -7 -9
-9 6 -9 14 0 16 -3 7 -8 -7 -5 -10 -16 -6 -26 4 -11 1 -21 -7 -26 -10 -7 -7
-11 14 -19 32 -12 35 -27 7 -36 -26 -8 -16 -25 16 -25 24 0 32 -14 14 -25 -7
-4 -5 -14 5 -28 18 -26 20 -63 3 -71 -7 -3 3 -3 23 0 28 4 39 2 46 -10 7 -12
17 -15 39 -10 23 4 34 14 43 40 8 21 19 34 30 34 21 0 44 59 36 92 -3 13 1 37
9 53 14 26 13 30 -2 41 -16 13 -16 13 0 14 26 0 67 46 61 68 -2 11 0 23 6 26
18 12 44 -57 47 -124 2 -36 10 -83 18 -105 20 -56 30 -98 27 -114 -2 -8 3 -25
10 -37 10 -19 18 -22 38 -18 14 4 30 10 35 15 5 4 22 5 37 2 32 -6 34 -2 18
28 -7 15 -7 24 1 35 10 11 9 15 -3 20 -13 5 -14 9 -4 25 9 15 7 27 -9 61 -12
24 -20 52 -18 63 1 11 5 34 7 50 3 17 1 35 -4 41 -5 6 -10 19 -12 30 -1 10 -6
25 -11 33 -5 7 -9 53 -9 102 l0 89 -26 -6 c-14 -3 -32 -7 -38 -10 -19 -5 -16
33 3 40 22 9 26 8 18 -5 -4 -8 1 -9 17 -4 32 10 31 7 18 59 -9 35 -19 51 -40
62 -26 13 -30 13 -35 -1 -9 -21 -24 -19 -24 4 0 22 -22 41 -27 24 -2 -6 -15
-24 -29 -40 -20 -23 -24 -37 -23 -80 2 -29 0 -56 -4 -60 -4 -3 -7 -1 -7 6 0 9
-4 8 -15 -3 -21 -20 -19 -39 4 -33 14 3 22 -5 35 -33 20 -47 22 -92 2 -84 -8
3 -16 -2 -19 -13 -3 -10 -5 -4 -6 15 -1 21 -6 32 -16 32 -9 0 -12 6 -9 15 4
11 2 13 -9 9 -16 -6 -37 -54 -37 -85 0 -23 -68 -159 -80 -159 -16 0 -32 70
-45 195 -10 89 -18 131 -30 150 -8 11 -13 37 -13 59 0 43 -29 116 -46 116 -6
0 -22 -9 -36 -20z m460 -70 c0 -5 -7 -10 -15 -10 -8 0 -15 5 -15 10 0 6 7 10
15 10 8 0 15 -4 15 -10z m-383 -112 c-3 -8 -6 -5 -6 6 -1 11 2 17 5 13 3 -3 4
-12 1 -19z m7 -334 c3 -8 2 -14 -1 -14 -10 0 -53 42 -53 52 0 12 47 -21 54
-38z m10 -100 c9 -22 8 -24 -9 -18 -8 4 -15 12 -15 20 0 19 16 18 24 -2z"/>
</g>
</svg>
